# xmcd
#
# Track frame offsets:
#	150
#	12744
#	29590
#	46820
#	62092
#	82899
#	99756
#	114911
#	128416
#	145493
#	161459
#	177668
#
# Disc length: 2591 seconds
#
# Revision: 0
# Processed by: cddbd v1.5.2PL0 Copyright (c) Steve Scherf et al.
# Submitted via: dBpowerAMP V4.0
#
DISCID=960a1d0c
DTITLE=Alan Jackson - Freight Train
DYEAR=2010
DGENRE=Country
TTITLE0=Hard Hat And A Hammer
TTITLE1=Every Now And Then
TTITLE2=After 17
TTITLE3=It's Just That Way
TTITLE4=Freight Train
TTITLE5=Taillights Blue
TTITLE6=I Could Get Used To This Lovin' Thing
TTITLE7=Till The End (With Lee Ann Womack)
TTITLE8=That's Where I Belong
TTITLE9=Big Green Eyes
TTITLE10=True Love Is A Golden Ring
TTITLE11=The Best Keeps Getting Better
EXTD=
EXTT0=
EXTT1=
EXTT2=
EXTT3=
EXTT4=
EXTT5=
EXTT6=
EXTT7=
EXTT8=
EXTT9=
EXTT10=
EXTT11=
PLAYORDER=
